<?xml version="1.0" encoding="UTF-8" standalone="no"?>
<svg
   xmlns:dc="http://purl.org/dc/elements/1.1/"
   xmlns:cc="http://creativecommons.org/ns#"
   xmlns:rdf="http://www.w3.org/1999/02/22-rdf-syntax-ns#"
   xmlns:svg="http://www.w3.org/2000/svg"
   xmlns="http://www.w3.org/2000/svg"
   xmlns:sodipodi="http://sodipodi.sourceforge.net/DTD/sodipodi-0.dtd"
   xmlns:inkscape="http://www.inkscape.org/namespaces/inkscape"
   width="65.008835mm"
   height="30.852318mm"
   viewBox="0 0 65.008835 30.852318"
   version="1.1"
   id="svg8"
   sodipodi:docname="logo2.svg"
   inkscape:version="1.0.2 (e86c870879, 2021-01-15)">
  <sodipodi:namedview
     pagecolor="#ffffff"
     bordercolor="#666666"
     borderopacity="1"
     objecttolerance="10"
     gridtolerance="10"
     guidetolerance="10"
     inkscape:pageopacity="0"
     inkscape:pageshadow="2"
     inkscape:window-width="1366"
     inkscape:window-height="715"
     id="namedview1222"
     showgrid="false"
     inkscape:zoom="1.6922029"
     inkscape:cx="123.09035"
     inkscape:cy="76.104292"
     inkscape:window-x="0"
     inkscape:window-y="21"
     inkscape:window-maximized="1"
     inkscape:current-layer="layer1" />
  <defs
     id="defs2">
    <filter
       style="color-interpolation-filters:sRGB"
       id="filter1693"
       x="-0.12"
       y="-0.15000001"
       width="1.26"
       height="1.3099999">
      <feColorMatrix
         values="0 0 0 0 0 0 0 0 0 0 0 0 0 0 0 0.21 0.72 0.07 0 0 "
         result="result1"
         id="feColorMatrix1665" />
      <feColorMatrix
         values="107.3"
         result="result9"
         id="feColorMatrix1667"
         type="saturate" />
      <feComposite
         in2="result9"
         in="SourceGraphic"
         operator="in"
         result="result4"
         id="feComposite1669" />
      <feFlood
         result="result2"
         flood-color="rgb(0,0,0)"
         id="feFlood1671" />
      <feComposite
         in2="result9"
         operator="in"
         result="result10"
         id="feComposite1673" />
      <feComposite
         in2="result4"
         operator="atop"
         id="feComposite1675" />
      <feGaussianBlur
         stdDeviation="3"
         result="result8"
         id="feGaussianBlur1677" />
      <feOffset
         dx="3"
         dy="3"
         result="result3"
         in="result8"
         id="feOffset1679" />
      <feFlood
         flood-opacity="1"
         flood-color="rgb(219,173,62)"
         result="result5"
         id="feFlood1681" />
      <feMerge
         result="result6"
         id="feMerge1689">
        <feMergeNode
           in="result5"
           id="feMergeNode1683" />
        <feMergeNode
           in="result3"
           id="feMergeNode1685" />
        <feMergeNode
           in="result4"
           id="feMergeNode1687" />
      </feMerge>
      <feComposite
         in2="SourceGraphic"
         operator="in"
         result="result7"
         id="feComposite1691" />
    </filter>
    <filter
       style="color-interpolation-filters:sRGB"
       id="filter1705"
       x="-0.18000001"
       width="1.3200001"
       height="1.7"
       y="-0.38999999">
      <feFlood
         flood-opacity="0.498039"
         flood-color="rgb(34,116,165)"
         result="flood"
         id="feFlood1695" />
      <feComposite
         in="SourceGraphic"
         in2="flood"
         operator="in"
         result="composite1"
         id="feComposite1697" />
      <feGaussianBlur
         in="composite1"
         stdDeviation="2"
         result="blur"
         id="feGaussianBlur1699" />
      <feOffset
         dx="0"
         dy="0"
         result="offset"
         id="feOffset1701" />
      <feComposite
         in="SourceGraphic"
         in2="offset"
         operator="over"
         result="composite2"
         id="feComposite1703" />
    </filter>
    <filter
       style="color-interpolation-filters:sRGB"
       id="filter1717">
      <feFlood
         flood-opacity="0.498039"
         flood-color="rgb(34,116,165)"
         result="flood"
         id="feFlood1707" />
      <feComposite
         in="SourceGraphic"
         in2="flood"
         operator="in"
         result="composite1"
         id="feComposite1709" />
      <feGaussianBlur
         in="composite1"
         stdDeviation="2"
         result="blur"
         id="feGaussianBlur1711" />
      <feOffset
         dx="0"
         dy="0"
         result="offset"
         id="feOffset1713" />
      <feComposite
         in="SourceGraphic"
         in2="offset"
         operator="over"
         result="composite2"
         id="feComposite1715" />
    </filter>
  </defs>
  <metadata
     id="metadata5">
    <rdf:RDF>
      <cc:Work
         rdf:about="">
        <dc:format>image/svg+xml</dc:format>
        <dc:type
           rdf:resource="http://purl.org/dc/dcmitype/StillImage" />
        <dc:title></dc:title>
      </cc:Work>
    </rdf:RDF>
  </metadata>
  <g
     id="layer1"
     transform="translate(-6.4712391,-13.766291)">
    <g
       aria-label="MENTIS"
       id="text12"
       style="font-style:normal;font-variant:normal;font-weight:normal;font-stretch:normal;font-size:10.5833px;line-height:1.25;font-family:Fascinate;-inkscape-font-specification:Fascinate;fill:#cd5d67;fill-opacity:1;stroke:none;stroke-width:0.264583;filter:url(#filter1705)">
      <path
         d="m 37.01283,23.21029 -1.619194,2.98345 q -0.103353,0.192925 -0.248047,0.323839 -0.144694,0.124023 -0.39963,0.124023 -0.234267,0 -0.392741,-0.130913 -0.151584,-0.130914 -0.254937,-0.310059 l -1.708766,-2.935219 q 0.04134,0.930175 0.07579,1.715657 0.01378,0.337619 0.02756,0.675238 0.01378,0.337619 0.02756,0.627007 0.01378,0.289387 0.02067,0.516764 0.01378,0.220485 0.02067,0.323838 0.0069,0.103353 -0.0069,0.186035 -0.0069,0.08268 -0.04823,0.144694 -0.04134,0.05512 -0.117133,0.08957 -0.07579,0.02756 -0.206705,0.02756 h -0.757921 q -0.124023,0 -0.234266,-0.07579 -0.103353,-0.08268 -0.103353,-0.316948 V 18.41472 q 0,-0.130914 0.03445,-0.261827 0.04134,-0.130914 0.130913,-0.234267 0.09646,-0.110243 0.248047,-0.172254 0.151584,-0.0689 0.37207,-0.0689 h 2.21864 q 0.268717,0 0.461642,0.09646 0.192926,0.08957 0.330729,0.303169 l 1.85346,2.942109 1.240234,-2.377114 q 0.110243,-0.213596 0.213595,-0.385851 0.103353,-0.179144 0.241157,-0.303168 0.144694,-0.130913 0.351399,-0.199815 0.213596,-0.07579 0.544325,-0.07579 h 1.832789 q 0.261827,0 0.447863,0.0689 0.192925,0.0689 0.310058,0.186035 0.124023,0.117133 0.179145,0.275607 0.05512,0.158474 0.05512,0.344509 v 8.061518 q 0,0.213595 -0.03445,0.39274 -0.03445,0.172255 -0.144694,0.303168 -0.103352,0.124024 -0.303168,0.192925 -0.192925,0.0689 -0.509874,0.0689 h -3.183265 q -0.282498,0 -0.468533,-0.06201 -0.186035,-0.06201 -0.296278,-0.179145 -0.110243,-0.117133 -0.158474,-0.296278 -0.04134,-0.179145 -0.04134,-0.420301 z"
         style="font-size:14.1111px;fill:#cd5d67;fill-opacity:1"
         id="path953" />
      <path
         d="m 45.673797,24.354056 v 2.793974 q 0.334175,-0.04823 0.613227,-0.08613 0.117134,-0.01723 0.234267,-0.03101 0.120578,-0.01722 0.220486,-0.03101 0.09991,-0.01378 0.172255,-0.02067 0.07235,-0.0069 0.09991,-0.0069 0.05857,0 0.09991,0.02412 0.04134,0.02067 0.04134,0.08957 v 0.316949 q 0,0.06201 -0.03101,0.117133 -0.03101,0.05168 -0.148139,0.05168 h -3.348635 q -0.16192,0 -0.265273,-0.03101 -0.09991,-0.03101 -0.158474,-0.08957 -0.05857,-0.05857 -0.07924,-0.148139 -0.02067,-0.08957 -0.02067,-0.210151 v -3.868845 q 0,-0.196371 0.04479,-0.313504 0.04479,-0.120578 0.127469,-0.18259 0.08268,-0.06546 0.196371,-0.08268 0.117133,-0.02067 0.258382,-0.02067 h 3.114368 q 0.117134,0 0.148139,0.05512 0.03445,0.05168 0.03445,0.117133 v 0.244602 q 0,0.0689 -0.0379,0.09302 -0.03445,0.02067 -0.09302,0.02067 -0.03445,0 -0.106798,-0.0069 -0.0689,-0.0069 -0.16192,-0.01723 -0.09302,-0.01378 -0.199816,-0.02756 -0.106798,-0.01378 -0.213596,-0.03101 -0.248047,-0.0379 -0.54088,-0.08613 v 0.875055 h 1.281576 q 0.07235,0 0.07235,0.07235 v 0.34451 q 0,0.07579 -0.07235,0.07579 z"
         style="font-size:7.05556px;fill:#cd5d67;fill-opacity:1"
         id="path955" />
      <path
         d="m 51.564914,22.624617 q 0.06546,0 0.117134,0.04134 0.05168,0.04134 0.05168,0.158475 v 4.492407 q 0,0.254937 -0.241157,0.254937 h -1.195449 q -0.113688,0 -0.18948,-0.04479 -0.07235,-0.04479 -0.130914,-0.103353 l -1.76389,-1.843127 q 0.03101,0.447863 0.06201,0.823378 0.01034,0.16192 0.02412,0.320394 0.01378,0.158475 0.02411,0.296279 0.01034,0.137804 0.01723,0.241157 0.01033,0.103352 0.01378,0.148139 0.0069,0.05857 -0.02067,0.110243 -0.02412,0.05168 -0.117134,0.05168 h -0.434082 q -0.06201,0 -0.117133,-0.0379 -0.05168,-0.04134 -0.05168,-0.158474 v -4.495853 q 0,-0.254937 0.282498,-0.254937 h 1.164443 q 0.130914,0 0.217041,0.05512 0.08957,0.05512 0.179145,0.144694 l 1.677763,1.663982 q -0.03445,-0.409967 -0.06201,-0.757922 -0.01378,-0.148139 -0.02756,-0.296278 -0.01034,-0.148139 -0.02067,-0.275608 -0.01033,-0.130914 -0.02067,-0.227376 -0.0069,-0.09646 -0.01033,-0.144694 -0.0069,-0.05512 0.02067,-0.106798 0.03101,-0.05512 0.137804,-0.05512 z"
         style="font-size:7.05556px;fill:#cd5d67;fill-opacity:1"
         id="path957" />
      <path
         d="m 53.201335,23.127601 q -0.223931,0.04823 -0.413412,0.08613 -0.08268,0.01722 -0.165364,0.03101 -0.07924,0.01378 -0.151585,0.02756 -0.07235,0.01034 -0.130913,0.01723 -0.05512,0.0069 -0.08268,0.0069 -0.05857,0 -0.09991,-0.02067 -0.0379,-0.02411 -0.0379,-0.09302 V 22.79689 q 0,-0.06546 0.05512,-0.117133 0.05512,-0.05512 0.172255,-0.05512 h 4.275366 q 0.117134,0 0.172255,0.05512 0.05512,0.05168 0.05512,0.117133 v 0.385851 q 0,0.0689 -0.04134,0.09302 -0.0379,0.02067 -0.09646,0.02067 -0.03101,0 -0.08613,-0.0069 -0.05512,-0.0069 -0.127468,-0.01723 -0.07235,-0.01378 -0.15503,-0.02756 -0.07924,-0.01378 -0.161919,-0.03101 -0.189481,-0.0379 -0.413412,-0.08613 v 3.972198 q 0,0.117133 -0.02067,0.206706 -0.02067,0.08613 -0.07924,0.148139 -0.05512,0.05857 -0.155029,0.08957 -0.09991,0.02756 -0.254937,0.02756 h -1.536514 q -0.16192,0 -0.265273,-0.03101 -0.09991,-0.03101 -0.158474,-0.08957 -0.05512,-0.05857 -0.07579,-0.148139 -0.02067,-0.08957 -0.02067,-0.210151 z"
         style="font-size:7.05556px;fill:#cd5d67;fill-opacity:1"
         id="path959" />
      <path
         d="m 57.235545,23.106931 q 0,-0.120579 0.02067,-0.210151 0.02067,-0.08957 0.07924,-0.148139 0.05857,-0.06201 0.16192,-0.09302 0.103353,-0.03101 0.268717,-0.03101 h 1.536514 q 0.199816,0 0.303168,0.05857 0.106799,0.05857 0.14814,0.148139 0.04479,0.08613 0.04823,0.186035 0.0034,0.09646 0.0034,0.179145 v 3.817169 q 0,0.07924 -0.01378,0.175699 -0.01378,0.09646 -0.0689,0.182591 -0.05512,0.08268 -0.16881,0.141249 -0.113688,0.05857 -0.313504,0.05857 h -1.47446 q -0.165364,0 -0.268717,-0.03101 -0.103353,-0.03101 -0.16192,-0.08957 -0.05857,-0.05857 -0.07924,-0.148139 -0.02067,-0.08957 -0.02067,-0.210151 z"
         style="font-size:7.05556px;fill:#cd5d67;fill-opacity:1"
         id="path961" />
      <path
         d="m 61.249084,23.809731 q 0.0379,-0.375516 0.203261,-0.627008 0.165365,-0.251492 0.409967,-0.399631 0.244601,-0.151585 0.544325,-0.213597 0.299723,-0.06201 0.606337,-0.06201 0.251492,0 0.492649,0.02067 0.241157,0.02067 0.444418,0.04823 0.203261,0.02756 0.3514,0.05512 0.148139,0.02756 0.217041,0.04134 0.04134,0.01034 0.04134,0.0379 0,0.0069 -0.0069,0.04134 l -0.05168,0.248047 q -0.0069,0.02411 -0.02067,0.03101 -0.01034,0.0034 -0.02067,0.0034 -0.151584,0 -0.261827,0.05168 -0.110243,0.05168 -0.18259,0.144694 -0.07235,0.09302 -0.110244,0.220486 -0.0379,0.127469 -0.05168,0.275608 l -0.206706,2.504586 q -0.02756,0.303169 -0.155029,0.571887 -0.127469,0.268717 -0.354845,0.468533 -0.227377,0.199816 -0.558106,0.316949 -0.33073,0.117133 -0.757922,0.117133 -0.285943,0 -0.551215,-0.02756 -0.265273,-0.02756 -0.482314,-0.06546 -0.217041,-0.0379 -0.375516,-0.07235 -0.155029,-0.0379 -0.223931,-0.05512 -0.04134,-0.01034 -0.04134,-0.0379 0,-0.0034 0.0069,-0.0379 l 0.05857,-0.261828 q 0.0069,-0.02411 0.01722,-0.02756 0.01378,-0.0069 0.02412,-0.0069 0.151584,0 0.279053,-0.04479 0.130914,-0.04479 0.227376,-0.148139 0.09646,-0.103353 0.158475,-0.268718 0.06546,-0.165364 0.08957,-0.406521 z"
         style="font-size:7.05556px;fill:#cd5d67;fill-opacity:1"
         id="path963" />
    </g>
    <g
       id="g879"
       style="fill:#ee964b;fill-opacity:1"
       transform="matrix(1.0741174,0,0,1.0741174,-0.70146553,12.756691)">
      <g
         aria-label="OCULI"
         id="text865"
         style="font-style:normal;font-weight:normal;font-size:7.05556px;line-height:1.25;font-family:sans-serif;fill:#ee964b;fill-opacity:1;stroke:none;stroke-width:0.264583;filter:url(#filter1705)">
        <path
           d="m 21.814217,24.786944 q -0.826824,0 -1.663983,-0.144694 -0.826825,-0.144694 -1.591637,-0.496095 -0.764812,-0.3514 -1.426272,-0.930177 -0.661459,-0.589112 -1.157554,-1.457278 -0.485759,-0.8785 -0.764812,-2.06706 -0.279053,-1.198895 -0.279053,-2.780197 0,-1.570966 0.279053,-2.769861 0.279053,-1.198895 0.764812,-2.067061 0.496095,-0.8785 1.157554,-1.457277 0.66146,-0.578777 1.426272,-0.9198422 0.764812,-0.3514003 1.591637,-0.4960945 0.837159,-0.1446943 1.663983,-0.1446943 0.826825,0 1.663984,0.1446943 0.83716,0.1446942 1.601972,0.4960945 0.764813,0.3410652 1.426272,0.9198422 0.661459,0.578777 1.147219,1.457277 0.485759,0.868166 0.764812,2.067061 0.279053,1.198895 0.279053,2.769861 0,1.570966 -0.279053,2.769861 -0.279053,1.198896 -0.764812,2.077396 -0.48576,0.868166 -1.147219,1.457278 -0.661459,0.578777 -1.426272,0.930177 -0.764812,0.351401 -1.601972,0.496095 -0.837159,0.144694 -1.663984,0.144694 z m 0.930178,-7.875501 q 0,1.291913 0.186035,2.160079 0.196371,0.868165 0.516765,1.395265 0.320395,0.527101 0.713136,0.754478 0.403077,0.217041 0.826824,0.217041 0.423748,0 0.826825,-0.217041 0.403076,-0.227377 0.713136,-0.754478 0.320394,-0.5271 0.506429,-1.395265 0.196371,-0.868166 0.196371,-2.160079 0,-1.291913 -0.196371,-2.160078 -0.186035,-0.868165 -0.506429,-1.395266 -0.31006,-0.5271 -0.713136,-0.744142 -0.403077,-0.227376 -0.826825,-0.227376 -0.423747,0 -0.826824,0.227376 -0.392741,0.217042 -0.713136,0.744142 -0.320394,0.527101 -0.516765,1.395266 -0.186035,0.868165 -0.186035,2.160078 z"
           style="font-size:21.1667px;fill:#ee964b;fill-opacity:1"
           id="path966" />
        <path
           d="m 34.957265,19.409153 q 0,0.847493 0.0689,1.46761 0.0689,0.613226 0.179145,1.047308 0.117133,0.427191 0.268717,0.695909 0.158475,0.261827 0.323839,0.413411 0.165365,0.144694 0.330729,0.199815 0.172255,0.04823 0.323839,0.04823 0.172254,0 0.310058,-0.04134 0.137804,-0.04823 0.248047,-0.103352 0.110243,-0.06201 0.179145,-0.103353 0.07579,-0.04823 0.117133,-0.04823 0.05512,0 0.09646,0.06201 l 0.296278,0.468533 q 0.02067,0.04134 0.02067,0.0689 0,0.03445 -0.02756,0.06201 -0.02756,0.02067 -0.04823,0.04134 -0.213596,0.165364 -0.544325,0.337619 -0.330729,0.172254 -0.75792,0.310058 -0.420301,0.137804 -0.930175,0.227376 -0.509874,0.08957 -1.074869,0.08957 -0.516764,0 -1.061089,-0.103353 -0.537434,-0.09646 -1.047308,-0.330729 -0.509874,-0.241157 -0.964626,-0.633897 -0.447862,-0.392741 -0.785481,-0.971516 -0.337619,-0.585666 -0.537435,-1.371147 -0.192925,-0.792372 -0.192925,-1.83279 0,-1.040418 0.192925,-1.825899 0.199816,-0.792371 0.537435,-1.371147 0.337619,-0.585666 0.785481,-0.978406 0.454752,-0.392741 0.964626,-0.627007 0.509874,-0.241157 1.047308,-0.337619 0.544325,-0.103353 1.061089,-0.103353 0.564995,0 1.074869,0.08957 0.509874,0.08957 0.930175,0.227376 0.427191,0.137804 0.75792,0.310059 0.330729,0.172254 0.544325,0.337619 0.02067,0.02067 0.04823,0.04823 0.02756,0.02067 0.02756,0.05512 0,0.02756 -0.02067,0.0689 l -0.296278,0.468532 q -0.04134,0.06201 -0.09646,0.06201 -0.04134,0 -0.117133,-0.04134 -0.0689,-0.04823 -0.179145,-0.103353 -0.110243,-0.06201 -0.248047,-0.103353 -0.137804,-0.04823 -0.310058,-0.04823 -0.151584,0 -0.323839,0.05512 -0.165364,0.04823 -0.330729,0.199816 -0.165364,0.144694 -0.323839,0.413411 -0.151584,0.261827 -0.268717,0.695909 -0.110243,0.427191 -0.179145,1.047308 -0.0689,0.613226 -0.0689,1.460719 z"
           style="font-size:14.1111px;fill:#ee964b;fill-opacity:1"
           id="path968" />
        <path
           d="m 46.208937,20.821641 q 0,0.785481 -0.151584,1.378037 -0.151584,0.585666 -0.420301,1.012858 -0.268717,0.427191 -0.633897,0.702799 -0.36518,0.275607 -0.799262,0.440972 -0.427191,0.165364 -0.909504,0.227376 -0.475423,0.0689 -0.964626,0.0689 -0.468533,0 -0.937065,-0.06201 -0.461643,-0.05512 -0.881944,-0.206706 -0.413411,-0.151584 -0.771701,-0.420301 -0.35829,-0.268717 -0.620117,-0.695909 -0.261827,-0.427191 -0.413411,-1.026637 -0.144694,-0.599447 -0.144694,-1.419379 v -5.367454 q 0,-0.241157 0.04134,-0.420302 0.04134,-0.179144 0.158475,-0.296278 0.117133,-0.124023 0.323838,-0.186035 0.206706,-0.06201 0.537435,-0.06201 h 3.073023 q 0.39963,0 0.606336,0.117133 0.213596,0.117133 0.296278,0.296278 0.08957,0.172254 0.09646,0.37207 0.0069,0.192925 0.0069,0.358289 v 7.076221 q 0,0.103353 0.05512,0.151584 0.06201,0.04134 0.117133,0.04134 0.248047,0 0.434082,-0.130913 0.186035,-0.137804 0.310059,-0.37207 0.124023,-0.234267 0.186035,-0.551215 0.0689,-0.316949 0.0689,-0.682128 v -6.352752 q 0,-0.117133 0.04823,-0.220486 0.05512,-0.103352 0.234266,-0.103352 h 0.716579 q 0.06201,0 0.124024,0.0069 0.06201,0.0069 0.110243,0.04134 0.04823,0.02756 0.07579,0.09646 0.02756,0.06201 0.02756,0.179144 z"
           style="font-size:14.1111px;fill:#ee964b;fill-opacity:1"
           id="path970" />
        <path
           d="m 47.476731,15.454187 q 0,-0.241157 0.04134,-0.420302 0.04134,-0.179144 0.158474,-0.296278 0.117133,-0.124023 0.323839,-0.186035 0.206705,-0.06201 0.537434,-0.06201 h 3.073023 q 0.399631,0 0.606336,0.117133 0.213596,0.117133 0.296278,0.296278 0.08957,0.172254 0.09646,0.37207 0.0069,0.192925 0.0069,0.358289 v 7.806581 q 0.475423,-0.0689 0.881944,-0.124024 0.172254,-0.02067 0.344509,-0.04134 0.179145,-0.02756 0.323839,-0.04823 0.151584,-0.02067 0.268717,-0.02756 0.117133,-0.01378 0.172255,-0.01378 0.117133,0 0.186035,0.04823 0.07579,0.04134 0.07579,0.179145 v 0.633897 q 0,0.124024 -0.110243,0.234266 -0.103353,0.103353 -0.337619,0.103353 h -5.897999 q -0.323839,0 -0.530544,-0.06201 -0.199816,-0.06201 -0.316949,-0.179145 -0.117133,-0.117133 -0.158474,-0.296278 -0.04134,-0.179145 -0.04134,-0.420302 z"
           style="font-size:14.1111px;fill:#ee964b;fill-opacity:1"
           id="path972" />
        <path
           d="m 55.641602,15.454187 q 0,-0.241157 0.04134,-0.420302 0.04134,-0.179144 0.158474,-0.296278 0.117133,-0.124023 0.323839,-0.186035 0.206705,-0.06201 0.537434,-0.06201 h 3.073023 q 0.399631,0 0.606337,0.117133 0.213595,0.117133 0.296278,0.296278 0.08957,0.172254 0.09646,0.37207 0.0069,0.192925 0.0069,0.358289 v 7.634326 q 0,0.158474 -0.02756,0.3514 -0.02756,0.192925 -0.137804,0.365179 -0.110243,0.165365 -0.337619,0.282498 -0.227376,0.117133 -0.627007,0.117133 h -2.949 q -0.330729,0 -0.537434,-0.06201 -0.206706,-0.06201 -0.323839,-0.179145 Q 55.724291,24.02558 55.68295,23.846435 55.64161,23.66729 55.64161,23.426133 Z"
           style="font-size:14.1111px;fill:#ee964b;fill-opacity:1"
           id="path974" />
      </g>
    </g>
  </g>
</svg>
