<?xml version="1.0" encoding="UTF-8" standalone="no"?>
<svg
   xmlns:dc="http://purl.org/dc/elements/1.1/"
   xmlns:cc="http://creativecommons.org/ns#"
   xmlns:rdf="http://www.w3.org/1999/02/22-rdf-syntax-ns#"
   xmlns:svg="http://www.w3.org/2000/svg"
   xmlns="http://www.w3.org/2000/svg"
   xmlns:sodipodi="http://sodipodi.sourceforge.net/DTD/sodipodi-0.dtd"
   xmlns:inkscape="http://www.inkscape.org/namespaces/inkscape"
   id="ed352ff4-7a14-4498-84af-0dc7b5b1bcd0"
   data-name="Layer 1"
   width="245.08144mm"
   height="165.875mm"
   viewBox="0 0 926.29205 626.92916"
   version="1.1"
   sodipodi:docname="feature-image-one.svg"
   inkscape:version="1.0.2 (e86c870879, 2021-01-15)">
  <metadata
     id="metadata1013">
    <rdf:RDF>
      <cc:Work
         rdf:about="">
        <dc:format>image/svg+xml</dc:format>
        <dc:type
           rdf:resource="http://purl.org/dc/dcmitype/StillImage" />
        <dc:title></dc:title>
      </cc:Work>
    </rdf:RDF>
  </metadata>
  <defs
     id="defs1011">
    <filter
       style="color-interpolation-filters:sRGB"
       inkscape:label="Drop Shadow"
       id="filter2330">
      <feFlood
         flood-opacity="0.498039"
         flood-color="rgb(34,116,165)"
         result="flood"
         id="feFlood2320" />
      <feComposite
         in="SourceGraphic"
         in2="flood"
         operator="in"
         result="composite1"
         id="feComposite2322" />
      <feGaussianBlur
         in="composite1"
         stdDeviation="11.9299"
         result="blur"
         id="feGaussianBlur2324" />
      <feOffset
         dx="0"
         dy="0"
         result="offset"
         id="feOffset2326" />
      <feComposite
         in="SourceGraphic"
         in2="offset"
         operator="over"
         result="fbSourceGraphic"
         id="feComposite2328" />
      <feColorMatrix
         result="fbSourceGraphicAlpha"
         in="fbSourceGraphic"
         values="0 0 0 -1 0 0 0 0 -1 0 0 0 0 -1 0 0 0 0 1 0"
         id="feColorMatrix2332" />
      <feFlood
         id="feFlood2334"
         flood-opacity="0.498039"
         flood-color="rgb(34,116,165)"
         result="flood"
         in="fbSourceGraphic" />
      <feComposite
         in2="flood"
         id="feComposite2336"
         in="fbSourceGraphic"
         operator="out"
         result="composite1" />
      <feGaussianBlur
         id="feGaussianBlur2338"
         in="composite1"
         stdDeviation="11.9299"
         result="blur" />
      <feOffset
         id="feOffset2340"
         dx="0"
         dy="0"
         result="offset" />
      <feComposite
         in2="fbSourceGraphic"
         id="feComposite2342"
         in="offset"
         operator="atop"
         result="composite2" />
    </filter>
    <filter
       style="color-interpolation-filters:sRGB;"
       inkscape:label="Lighting"
       id="filter4345">
      <feComponentTransfer
         in="blur"
         result="component"
         id="feComponentTransfer4343">
        <feFuncR
           type="gamma"
           amplitude="1"
           exponent="1"
           offset="0"
           id="feFuncR4337" />
        <feFuncG
           type="gamma"
           amplitude="1"
           exponent="1"
           offset="0"
           id="feFuncG4339" />
        <feFuncB
           type="gamma"
           amplitude="1"
           exponent="1"
           offset="0"
           id="feFuncB4341" />
        <feFuncA
           id="feFuncA4499"
           type="identity" />
      </feComponentTransfer>
    </filter>
    <filter
       style="color-interpolation-filters:sRGB;"
       inkscape:label="Lighting"
       id="filter4355">
      <feComponentTransfer
         in="blur"
         result="component"
         id="feComponentTransfer4353">
        <feFuncR
           type="gamma"
           amplitude="1"
           exponent="1"
           offset="0"
           id="feFuncR4347" />
        <feFuncG
           type="gamma"
           amplitude="1"
           exponent="1"
           offset="0"
           id="feFuncG4349" />
        <feFuncB
           type="gamma"
           amplitude="1"
           exponent="1"
           offset="0"
           id="feFuncB4351" />
      </feComponentTransfer>
    </filter>
    <filter
       style="color-interpolation-filters:sRGB;"
       inkscape:label="Lighting"
       id="filter4365">
      <feComponentTransfer
         in="blur"
         result="component"
         id="feComponentTransfer4363">
        <feFuncR
           type="gamma"
           amplitude="1"
           exponent="1"
           offset="0"
           id="feFuncR4357" />
        <feFuncG
           type="gamma"
           amplitude="1"
           exponent="1"
           offset="0"
           id="feFuncG4359" />
        <feFuncB
           type="gamma"
           amplitude="1"
           exponent="1"
           offset="0"
           id="feFuncB4361" />
      </feComponentTransfer>
    </filter>
    <filter
       style="color-interpolation-filters:sRGB;"
       inkscape:label="Lighting"
       id="filter4375">
      <feComponentTransfer
         in="blur"
         result="component"
         id="feComponentTransfer4373">
        <feFuncR
           type="gamma"
           amplitude="1"
           exponent="1"
           offset="0"
           id="feFuncR4367" />
        <feFuncG
           type="gamma"
           amplitude="1"
           exponent="1"
           offset="0"
           id="feFuncG4369" />
        <feFuncB
           type="gamma"
           amplitude="1"
           exponent="1"
           offset="0"
           id="feFuncB4371" />
      </feComponentTransfer>
    </filter>
    <filter
       style="color-interpolation-filters:sRGB;"
       inkscape:label="Lighting"
       id="filter4385">
      <feComponentTransfer
         in="blur"
         result="component"
         id="feComponentTransfer4383">
        <feFuncR
           type="gamma"
           amplitude="1"
           exponent="1"
           offset="0"
           id="feFuncR4377" />
        <feFuncG
           type="gamma"
           amplitude="1"
           exponent="1"
           offset="0"
           id="feFuncG4379" />
        <feFuncB
           type="gamma"
           amplitude="1"
           exponent="1"
           offset="0"
           id="feFuncB4381" />
      </feComponentTransfer>
    </filter>
    <filter
       style="color-interpolation-filters:sRGB;"
       inkscape:label="Lighting"
       id="filter4395">
      <feComponentTransfer
         in="blur"
         result="component"
         id="feComponentTransfer4393">
        <feFuncR
           type="gamma"
           amplitude="1"
           exponent="1"
           offset="0"
           id="feFuncR4387" />
        <feFuncG
           type="gamma"
           amplitude="1"
           exponent="1"
           offset="0"
           id="feFuncG4389" />
        <feFuncB
           type="gamma"
           amplitude="1"
           exponent="1"
           offset="0"
           id="feFuncB4391" />
      </feComponentTransfer>
    </filter>
    <filter
       style="color-interpolation-filters:sRGB;"
       inkscape:label="Lighting"
       id="filter4405">
      <feComponentTransfer
         in="blur"
         result="component"
         id="feComponentTransfer4403">
        <feFuncR
           type="gamma"
           amplitude="1"
           exponent="1"
           offset="0"
           id="feFuncR4397" />
        <feFuncG
           type="gamma"
           amplitude="1"
           exponent="1"
           offset="0"
           id="feFuncG4399" />
        <feFuncB
           type="gamma"
           amplitude="1"
           exponent="1"
           offset="0"
           id="feFuncB4401" />
      </feComponentTransfer>
    </filter>
    <filter
       style="color-interpolation-filters:sRGB;"
       inkscape:label="Lighting"
       id="filter4415">
      <feComponentTransfer
         in="blur"
         result="component"
         id="feComponentTransfer4413">
        <feFuncR
           type="gamma"
           amplitude="1"
           exponent="1"
           offset="0"
           id="feFuncR4407" />
        <feFuncG
           type="gamma"
           amplitude="1"
           exponent="1"
           offset="0"
           id="feFuncG4409" />
        <feFuncB
           type="gamma"
           amplitude="1"
           exponent="1"
           offset="0"
           id="feFuncB4411" />
      </feComponentTransfer>
    </filter>
    <filter
       style="color-interpolation-filters:sRGB;"
       inkscape:label="Lighting"
       id="filter4425">
      <feComponentTransfer
         in="blur"
         result="component"
         id="feComponentTransfer4423">
        <feFuncR
           type="gamma"
           amplitude="1"
           exponent="1"
           offset="0"
           id="feFuncR4417" />
        <feFuncG
           type="gamma"
           amplitude="1"
           exponent="1"
           offset="0"
           id="feFuncG4419" />
        <feFuncB
           type="gamma"
           amplitude="1"
           exponent="1"
           offset="0"
           id="feFuncB4421" />
      </feComponentTransfer>
    </filter>
    <filter
       style="color-interpolation-filters:sRGB;"
       inkscape:label="Lighting"
       id="filter4435">
      <feComponentTransfer
         in="blur"
         result="component"
         id="feComponentTransfer4433">
        <feFuncR
           type="gamma"
           amplitude="1"
           exponent="1"
           offset="0"
           id="feFuncR4427" />
        <feFuncG
           type="gamma"
           amplitude="1"
           exponent="1"
           offset="0"
           id="feFuncG4429" />
        <feFuncB
           type="gamma"
           amplitude="1"
           exponent="1"
           offset="0"
           id="feFuncB4431" />
      </feComponentTransfer>
    </filter>
    <filter
       style="color-interpolation-filters:sRGB;"
       inkscape:label="Lighting"
       id="filter4445">
      <feComponentTransfer
         in="blur"
         result="component"
         id="feComponentTransfer4443">
        <feFuncR
           type="gamma"
           amplitude="1"
           exponent="1"
           offset="0"
           id="feFuncR4437" />
        <feFuncG
           type="gamma"
           amplitude="1"
           exponent="1"
           offset="0"
           id="feFuncG4439" />
        <feFuncB
           type="gamma"
           amplitude="1"
           exponent="1"
           offset="0"
           id="feFuncB4441" />
      </feComponentTransfer>
    </filter>
    <filter
       style="color-interpolation-filters:sRGB;"
       inkscape:label="Lighting"
       id="filter4455">
      <feComponentTransfer
         in="blur"
         result="component"
         id="feComponentTransfer4453">
        <feFuncR
           type="gamma"
           amplitude="1"
           exponent="1"
           offset="0"
           id="feFuncR4447" />
        <feFuncG
           type="gamma"
           amplitude="1"
           exponent="1"
           offset="0"
           id="feFuncG4449" />
        <feFuncB
           type="gamma"
           amplitude="1"
           exponent="1"
           offset="0"
           id="feFuncB4451" />
      </feComponentTransfer>
    </filter>
    <filter
       style="color-interpolation-filters:sRGB;"
       inkscape:label="Lighting"
       id="filter4465">
      <feComponentTransfer
         in="blur"
         result="component"
         id="feComponentTransfer4463">
        <feFuncR
           type="gamma"
           amplitude="1"
           exponent="1"
           offset="0"
           id="feFuncR4457" />
        <feFuncG
           type="gamma"
           amplitude="1"
           exponent="1"
           offset="0"
           id="feFuncG4459" />
        <feFuncB
           type="gamma"
           amplitude="1"
           exponent="1"
           offset="0"
           id="feFuncB4461" />
      </feComponentTransfer>
    </filter>
    <filter
       style="color-interpolation-filters:sRGB;"
       inkscape:label="Lighting"
       id="filter4475">
      <feComponentTransfer
         in="blur"
         result="component"
         id="feComponentTransfer4473">
        <feFuncR
           type="gamma"
           amplitude="1"
           exponent="1"
           offset="0"
           id="feFuncR4467" />
        <feFuncG
           type="gamma"
           amplitude="1"
           exponent="1"
           offset="0"
           id="feFuncG4469" />
        <feFuncB
           type="gamma"
           amplitude="1"
           exponent="1"
           offset="0"
           id="feFuncB4471" />
      </feComponentTransfer>
    </filter>
    <filter
       style="color-interpolation-filters:sRGB;"
       inkscape:label="Lighting"
       id="filter4485">
      <feComponentTransfer
         in="blur"
         result="component"
         id="feComponentTransfer4483">
        <feFuncR
           type="gamma"
           amplitude="1"
           exponent="1"
           offset="0"
           id="feFuncR4477" />
        <feFuncG
           type="gamma"
           amplitude="1"
           exponent="1"
           offset="0"
           id="feFuncG4479" />
        <feFuncB
           type="gamma"
           amplitude="1"
           exponent="1"
           offset="0"
           id="feFuncB4481" />
      </feComponentTransfer>
    </filter>
    <filter
       style="color-interpolation-filters:sRGB;"
       inkscape:label="Lighting"
       id="filter4495">
      <feComponentTransfer
         in="blur"
         result="component"
         id="feComponentTransfer4493">
        <feFuncR
           type="gamma"
           amplitude="1"
           exponent="1"
           offset="0"
           id="feFuncR4487" />
        <feFuncG
           type="gamma"
           amplitude="1"
           exponent="1"
           offset="0"
           id="feFuncG4489" />
        <feFuncB
           type="gamma"
           amplitude="1"
           exponent="1"
           offset="0"
           id="feFuncB4491" />
      </feComponentTransfer>
    </filter>
    <filter
       style="color-interpolation-filters:sRGB;"
       inkscape:label="Drop Shadow"
       id="filter4891">
      <feFlood
         flood-opacity="0.498039"
         flood-color="rgb(255,255,255)"
         result="flood"
         id="feFlood4881" />
      <feComposite
         in="flood"
         in2="SourceGraphic"
         operator="in"
         result="composite1"
         id="feComposite4883" />
      <feGaussianBlur
         in="composite1"
         stdDeviation="11.9299"
         result="blur"
         id="feGaussianBlur4885" />
      <feOffset
         dx="0"
         dy="0"
         result="offset"
         id="feOffset4887" />
      <feComposite
         in="SourceGraphic"
         in2="offset"
         operator="over"
         result="composite2"
         id="feComposite4889" />
    </filter>
  </defs>
  <sodipodi:namedview
     pagecolor="#ffffff"
     bordercolor="#666666"
     borderopacity="1"
     objecttolerance="10"
     gridtolerance="10"
     guidetolerance="10"
     inkscape:pageopacity="0"
     inkscape:pageshadow="2"
     inkscape:window-width="1366"
     inkscape:window-height="747"
     id="namedview1009"
     showgrid="false"
     inkscape:pagecheckerboard="true"
     inkscape:zoom="1.0687924"
     inkscape:cx="502.59027"
     inkscape:cy="276.65529"
     inkscape:window-x="0"
     inkscape:window-y="21"
     inkscape:window-maximized="1"
     inkscape:current-layer="layer2"
     units="mm"
     width="211mm"
     fit-margin-top="0"
     fit-margin-left="0"
     fit-margin-right="0"
     fit-margin-bottom="0" />
  <g
     inkscape:groupmode="layer"
     id="layer2"
     inkscape:label="Layer 2"
     transform="translate(77.191556,43.244095)">
    <rect
       style="fill:#ffffff;fill-opacity:1;stroke:#3f3d56;stroke-width:4.11591;stroke-linecap:round;stroke-linejoin:bevel;stroke-miterlimit:4;stroke-dasharray:none;stroke-opacity:1;filter:url(#filter4891)"
       id="rect1016"
       width="498.89185"
       height="341.98682"
       x="273.01755"
       y="0"
       rx="8.2127848"
       ry="8.0161009" />
  </g>
  <g
     inkscape:groupmode="layer"
     id="layer1"
     inkscape:label="Layer 1"
     transform="translate(77.191556,43.244095)">
    <g
       id="g2258"
       style="filter:url(#filter2330)">
      <path
         d="M 319.61433,712.67961 A 141.78089,141.78089 0 0 1 213.56155,573.28569 c 0.1219,-7.912 0.95378,-15.99006 4.27976,-23.1701 3.32598,-7.18004 9.50394,-13.39013 17.23186,-15.09142 8.43389,-1.8567 17.33349,1.93874 23.61873,7.861 6.28524,5.92226 10.40636,13.736 14.198,21.495 22.83782,46.734 40.18948,96.87978 46.6859,148.48823 z"
         transform="translate(-213.54528,-184.27953)"
         fill="#f2f2f2"
         id="path942"
         style="filter:url(#filter4345);stroke:#ffffff;stroke-opacity:1" />
      <path
         d="m 231.247,536.58343 16.006,36.36706 16.006,36.36706 c 5.06915,11.51754 10.12863,23.04012 15.36814,34.48152 5.1935,11.34091 10.56495,22.6034 16.29525,33.684 5.72218,11.06486 11.80377,21.94912 18.40506,32.51522 q 1.23309,1.9737 2.49042,3.93206 c 0.58008,0.90425 2.03014,0.0655 1.44595,-0.84519 -6.72793,-10.48763 -12.92723,-21.30541 -18.74161,-32.32388 -5.82064,-11.03036 -11.2609,-22.25747 -16.50019,-33.57425 -5.26729,-11.37725 -10.332,-22.84667 -15.38326,-34.321 q -7.97541,-18.11688 -15.948,-36.235 l -16.00605,-36.36706 -1.99187,-4.52568 c -0.43316,-0.98418 -1.87645,-0.133 -1.44595,0.84519 z"
         transform="translate(-213.54528,-184.27953)"
         fill="#fff"
         id="path944"
         style="filter:url(#filter4355);stroke:#ffffff;stroke-opacity:1" />
      <path
         d="m 312.93738,712.93239 a 82.96676,82.96676 0 0 1 -92.692,-43.74066 c -2.07267,-4.14071 -3.82153,-8.55926 -4.03308,-13.1849 -0.21155,-4.62564 1.31945,-9.51764 4.87237,-12.48717 3.87749,-3.2408 9.52264,-3.67283 14.38463,-2.29486 4.86199,1.37797 9.111,4.32217 13.17418,7.32689 24.47345,18.09816 47.01962,39.44868 64.3248,64.48912 z"
         transform="translate(-213.54528,-184.27953)"
         fill="#f2f2f2"
         id="path946"
         style="filter:url(#filter4365);stroke:#ffffff;stroke-opacity:1" />
      <path
         d="m 219.51916,645.36213 18.12784,14.56012 18.12782,14.56013 c 5.74112,4.61123 11.47858,9.22769 17.2876,13.75339 5.758,4.486 11.58722,8.88316 17.55363,13.089 5.958,4.19991 12.05376,8.209 18.33349,11.91267 q 1.173,0.69183 2.35449,1.36914 c 0.54528,0.31287 1.07169,-0.51407 0.52254,-0.82916 -6.32429,-3.62871 -12.46326,-7.57153 -18.45656,-11.72247 -5.99977,-4.15542 -11.85515,-8.51568 -17.63042,-12.97675 -5.80611,-4.4849 -11.53195,-9.07235 -17.25211,-13.666 q -9.03158,-7.25292 -18.062,-14.50724 L 222.29761,646.3449 220.0417,644.533 c -0.49058,-0.394 -1.0101,0.43755 -0.52254,0.82916 z"
         transform="translate(-213.54528,-184.27953)"
         fill="#fff"
         id="path948"
         style="filter:url(#filter4375);stroke:#ffffff;stroke-opacity:1" />
      <rect
         x="272.90945"
         y="28.03998"
         width="499"
         height="2"
         fill="#3f3d56"
         id="rect952" />
      <circle
         cx="289.90945"
         cy="15"
         r="6"
         fill="#3f3d56"
         id="circle954" />
      <circle
         cx="307.15945"
         cy="15"
         r="6"
         fill="#3f3d56"
         id="circle956" />
      <circle
         cx="324.40945"
         cy="15"
         r="6"
         fill="#3f3d56"
         id="circle958" />
      <path
         d="m 608.32283,258.77953 h -84 a 7,7 0 1 1 0,-14 h 84 a 7,7 0 0 1 0,14 z"
         transform="translate(-213.54528,-184.27953)"
         fill="#ccc"
         id="path960"
         style="fill:#a68fa0;fill-opacity:1" />
      <path
         d="m 723.32283,292.77953 h -199 a 7,7 0 0 1 0,-14 h 199 a 7,7 0 0 1 0,14 z"
         transform="translate(-213.54528,-184.27953)"
         fill="#ccc"
         id="path962"
         style="fill:#a68fa0;fill-opacity:1" />
      <path
         d="m 787.54267,306.30254 a 91.00351,91.00351 0 0 0 75.04394,142.477 v -79.44 z"
         transform="translate(-213.54528,-184.27953)"
         fill="#6c63ff"
         id="path964"
         style="fill:#ee964b;fill-opacity:1" />
      <path
         d="m 862.58661,266.77953 a 90.896,90.896 0 0 0 -75.04394,39.523 l 75.04394,63.037 z"
         transform="translate(-213.54528,-184.27953)"
         fill="#ccc"
         id="path966"
         style="fill:#cd5d67;fill-opacity:1" />
      <path
         d="m 862.58661,449.77953 h -1 v -184 h 1 a 92,92 0 1 1 0,184 z m 1,-181.99463 v 179.98926 a 90.00019,90.00019 0 0 0 0,-179.98926 z"
         transform="translate(-213.54528,-184.27953)"
         fill="#3f3d56"
         id="path968" />
      <path
         d="m 582.32283,487.27953 h -17 a 4.50508,4.50508 0 0 1 -4.5,-4.5 v -49 a 4.50508,4.50508 0 0 1 4.5,-4.5 h 17 a 4.50507,4.50507 0 0 1 4.5,4.5 v 49 a 4.50508,4.50508 0 0 1 -4.5,4.5 z"
         transform="translate(-213.54528,-184.27953)"
         fill="#ccc"
         id="path970"
         style="fill:#a68fa0;fill-opacity:1" />
      <path
         d="m 632.32283,487.27953 h -17 a 4.50508,4.50508 0 0 1 -4.5,-4.5 v -72 a 4.50508,4.50508 0 0 1 4.5,-4.5 h 17 a 4.50507,4.50507 0 0 1 4.5,4.5 v 72 a 4.50508,4.50508 0 0 1 -4.5,4.5 z"
         transform="translate(-213.54528,-184.27953)"
         fill="#ff6584"
         id="path972"
         style="fill:#cd5d67;fill-opacity:1" />
      <path
         d="m 682.32283,487.27953 h -17 a 4.50508,4.50508 0 0 1 -4.5,-4.5 v -92 a 4.50508,4.50508 0 0 1 4.5,-4.5 h 17 a 4.50507,4.50507 0 0 1 4.5,4.5 v 92 a 4.50508,4.50508 0 0 1 -4.5,4.5 z"
         transform="translate(-213.54528,-184.27953)"
         fill="#6c63ff"
         id="path974"
         style="fill:#2274a5;fill-opacity:1" />
      <path
         d="m 582.32283,487.77953 h -17 a 5.00573,5.00573 0 0 1 -5,-5 v -110 a 5.00573,5.00573 0 0 1 5,-5 h 17 a 5.00573,5.00573 0 0 1 5,5 v 110 a 5.00573,5.00573 0 0 1 -5,5 z m -17,-118 a 3.00328,3.00328 0 0 0 -3,3 v 110 a 3.00329,3.00329 0 0 0 3,3 h 17 a 3.00328,3.00328 0 0 0 3,-3 v -110 a 3.00328,3.00328 0 0 0 -3,-3 z"
         transform="translate(-213.54528,-184.27953)"
         fill="#3f3d56"
         id="path976" />
      <path
         d="m 632.32283,487.77953 h -17 a 5.00573,5.00573 0 0 1 -5,-5 v -110 a 5.00573,5.00573 0 0 1 5,-5 h 17 a 5.00573,5.00573 0 0 1 5,5 v 110 a 5.00573,5.00573 0 0 1 -5,5 z m -17,-118 a 3.00328,3.00328 0 0 0 -3,3 v 110 a 3.00329,3.00329 0 0 0 3,3 h 17 a 3.00328,3.00328 0 0 0 3,-3 v -110 a 3.00328,3.00328 0 0 0 -3,-3 z"
         transform="translate(-213.54528,-184.27953)"
         fill="#3f3d56"
         id="path978" />
      <path
         d="m 682.32283,487.77953 h -17 a 5.00573,5.00573 0 0 1 -5,-5 v -110 a 5.00573,5.00573 0 0 1 5,-5 h 17 a 5.00573,5.00573 0 0 1 5,5 v 110 a 5.00573,5.00573 0 0 1 -5,5 z m -17,-118 a 3.00328,3.00328 0 0 0 -3,3 v 110 a 3.00329,3.00329 0 0 0 3,3 h 17 a 3.00328,3.00328 0 0 0 3,-3 v -110 a 3.00328,3.00328 0 0 0 -3,-3 z"
         transform="translate(-213.54528,-184.27953)"
         fill="#3f3d56"
         id="path980" />
      <path
         d="M 325.97669,543.28208 A 10.05577,10.05577 0 0 0 317.19187,530.61 l -8.59987,-34.68465 -12.58652,13.65332 10.09618,30.84389 a 10.11028,10.11028 0 0 0 19.875,2.85952 z"
         transform="translate(-213.54528,-184.27953)"
         fill="#ffb8b8"
         id="path982"
         style="filter:url(#filter4385);stroke:#ffffff;stroke-opacity:1" />
      <path
         d="m 302.92,532.61453 a 4.50494,4.50494 0 0 1 -2.5174,-2.66936 L 286.04644,485.767 a 46.37348,46.37348 0 0 1 0.76364,-32.63527 l 13.83846,-34.35489 a 14.49652,14.49652 0 1 1 28.5985,4.76667 l -19.09249,55.55769 6.683,45.23868 a 4.51467,4.51467 0 0 1 -2.5399,4.50394 l -7.70875,3.67825 a 4.50568,4.50568 0 0 1 -2.65851,0.38041 4.45465,4.45465 0 0 1 -1.01039,-0.28795 z"
         transform="translate(-213.54528,-184.27953)"
         fill="#2f2e41"
         id="path984"
         style="filter:url(#filter4395);stroke:#ffffff;stroke-opacity:1" />
      <polygon
         points="178.435,471.154 160.341,471.155 160.343,518.443 172.603,518.442 "
         fill="#ffb8b8"
         id="polygon986"
         style="filter:url(#filter4405);stroke:#ffffff;stroke-opacity:1" />
      <path
         d="m 371.26153,699.21893 h 38.53073 v 14.88687 h -23.64387 a 14.88686,14.88686 0 0 1 -14.88686,-14.88686 v 0 z"
         transform="rotate(179.99738,283.75633,614.52017)"
         fill="#2f2e41"
         id="path988"
         style="filter:url(#filter4415);stroke:#ffffff;stroke-opacity:1" />
      <polygon
         points="117.435,471.154 99.341,471.155 99.343,518.443 111.603,518.442 "
         fill="#ffb8b8"
         id="polygon990"
         style="filter:url(#filter4425);stroke:#ffffff;stroke-opacity:1" />
      <path
         d="m 310.26153,699.21893 h 38.53073 v 14.88687 h -23.64387 a 14.88686,14.88686 0 0 1 -14.88686,-14.88686 v 0 z"
         transform="rotate(179.99738,222.75633,614.52017)"
         fill="#2f2e41"
         id="path992"
         style="filter:url(#filter4435);stroke:#ffffff;stroke-opacity:1" />
      <path
         d="m 377.23949,509.99078 10.77686,85.38587 q 2.22236,17.60784 3.10973,35.34585 l 2.90343,58.06853 a 4,4 0 0 1 -3.995,4.19975 h -16.35634 a 4,4 0 0 1 -3.95471,-3.39973 L 355.01338,592.67754 A 2,2 0 0 0 351.07,592.6106 l -17.72158,94.91672 a 4,4 0 0 1 -3.62623,3.18424 l -15.05405,0.95518 a 4,4 0 0 1 -4.28995,-4.11428 l 4.8613,-155.56168 z"
         transform="translate(-213.54528,-184.27953)"
         fill="#2f2e41"
         id="path994"
         style="filter:url(#filter4445);stroke:#ffffff;stroke-opacity:1" />
      <circle
         cx="115.94619"
         cy="179.53015"
         r="24.561029"
         fill="#ffb8b8"
         id="circle996"
         style="filter:url(#filter4455);stroke:#ffffff;stroke-opacity:1" />
      <path
         d="m 310.23949,533.99078 c 6,14 32,24 38,4 4.64014,-15.46 23.02,-21.96 31.12989,-24.11 a 4.01608,4.01608 0 0 0 2.86035,-4.86005 l -22.67041,-89.05 a 31.272,31.272 0 0 0 -21.06006,-22.16 c -18.01953,-5.58 -37.01953,5.91 -40.06983,24.52 a 137.15658,137.15658 0 0 0 -1.58984,15.76 c -1.88037,39.29007 9.44971,86.68002 13.3999,95.90005 z"
         transform="translate(-213.54528,-184.27953)"
         fill="#6c63ff"
         id="path998"
         style="filter:url(#filter4465);stroke:#ffffff;stroke-opacity:1" />
      <path
         d="m 391.62938,533.96509 a 10.05577,10.05577 0 0 0 -12.75277,-8.66732 l -20.49275,-29.275 -6.83741,17.2651 20.50855,25.15313 a 10.11027,10.11027 0 0 0 19.57442,-4.47588 z"
         transform="translate(-213.54528,-184.27953)"
         fill="#ffb8b8"
         id="path1000"
         style="filter:url(#filter4475);stroke:#ffffff;stroke-opacity:1" />
      <path
         d="m 366.27921,532.29853 a 4.505,4.505 0 0 1 -3.30867,-1.586 L 333.69368,494.6477 A 46.37356,46.37356 0 0 1 322.6752,463.91926 l 0.56429,-37.033 a 14.49652,14.49652 0 1 1 28.40042,-5.832 l 2.15442,58.70723 22.49784,39.81265 a 4.51467,4.51467 0 0 1 -0.75115,5.1159 l -5.87132,6.20338 a 4.50564,4.50564 0 0 1 -2.34406,1.31062 4.4548,4.4548 0 0 1 -1.04643,0.0945 z"
         transform="translate(-213.54528,-184.27953)"
         fill="#2f2e41"
         id="path1002"
         style="filter:url(#filter4485);stroke:#ffffff;stroke-opacity:1" />
      <path
         d="m 310.849,383.89889 a 4.00709,4.00709 0 0 0 5.90278,-2.36826 l 0.0137,-0.0559 c 0.44576,-1.86412 0.0756,-3.81068 -0.0523,-5.72308 -0.12792,-1.9124 0.0593,-4.01327 1.36174,-5.41937 2.428,-2.62114 6.74756,-1.23165 10.25844,-1.8944 a 8.66429,8.66429 0 0 0 6.74007,-9.25291 c -0.05,-0.3975 -0.12841,-0.79545 -0.21633,-1.19315 a 6.67288,6.67288 0 0 1 6.92675,-8.0813 c 3.5481,0.20288 7.378,1.2779 10.31357,-1.35011 a 7.60777,7.60777 0 0 0 1.82654,-8.20134 c -1.67623,-4.8383 -6.4137,-7.37124 -11.10186,-8.76367 a 40.62025,40.62025 0 0 0 -34.43036,5.64955 c -2.96118,2.08724 -5.72662,4.70983 -6.98873,8.10575 -1.26211,3.39592 -0.65322,7.6803 2.19278,9.92206 a 18.332,18.332 0 0 0 -4.24619,17.80643 c 1.40571,4.52946 8.11447,8.87203 11.49941,10.8197 z"
         transform="translate(-213.54528,-184.27953)"
         fill="#2f2e41"
         id="path1004"
         style="filter:url(#filter4495);stroke:#ffffff;stroke-opacity:1" />
      <path
         d="m 489.65157,715.72047 h -265 a 1,1 0 0 1 0,-2 h 265 a 1,1 0 0 1 0,2 z"
         transform="translate(-213.54528,-184.27953)"
         fill="#3f3d56"
         id="path1006" />
    </g>
  </g>
</svg>
